<?xml version="1.0" standalone="no"?>
<!DOCTYPE svg PUBLIC "-//W3C//DTD SVG 20010904//EN"
 "http://www.w3.org/TR/2001/REC-SVG-20010904/DTD/svg10.dtd">
<svg version="1.0" xmlns="http://www.w3.org/2000/svg"
 width="512.000000pt" height="512.000000pt" viewBox="0 0 512.000000 512.000000"
 preserveAspectRatio="xMidYMid meet">

<g transform="translate(0.000000,512.000000) scale(0.100000,-0.100000)"
fill="#000000" stroke="none">
<path d="M3615 5114 c-346 -55 -619 -258 -757 -562 -56 -124 -80 -240 -80
-392 0 -113 4 -151 26 -234 107 -411 452 -695 877 -723 382 -24 754 198 919
549 71 151 85 220 84 408 0 190 -16 266 -84 409 -126 263 -351 447 -638 522
-76 20 -280 33 -347 23z m249 -439 c130 -34 246 -117 318 -229 110 -170 110
-403 0 -572 -70 -107 -162 -177 -289 -220 -69 -23 -90 -26 -178 -22 -68 3
-119 11 -158 26 -155 56 -273 176 -329 333 -32 92 -32 258 2 344 64 166 195
291 353 336 77 22 204 24 281 4z"/>
<path d="M1489 4260 c-398 -49 -723 -337 -821 -726 -31 -123 -31 -343 0 -456
80 -293 263 -515 526 -639 146 -68 217 -83 406 -83 143 -1 176 2 245 22 319
92 562 322 664 627 110 331 33 689 -203 952 -66 73 -192 166 -290 213 -153 74
-365 110 -527 90z m227 -435 c199 -47 348 -192 400 -390 19 -69 17 -200 -2
-266 -71 -240 -272 -393 -514 -393 -294 0 -530 235 -530 526 0 189 89 354 242
452 52 33 148 71 198 79 57 9 149 6 206 -8z"/>
<path d="M3445 2764 c-294 -43 -550 -155 -771 -335 -78 -63 -105 -107 -112
-180 -15 -157 151 -276 293 -210 22 10 68 42 103 70 217 176 513 263 782 230
324 -39 604 -210 777 -475 105 -162 158 -322 172 -524 9 -122 26 -173 73 -217
83 -77 228 -68 305 20 47 54 57 95 50 219 -16 269 -100 520 -254 753 -83 125
-272 316 -393 397 -163 108 -358 191 -550 233 -73 16 -405 29 -475 19z"/>
<path d="M1445 1914 c-710 -76 -1279 -595 -1415 -1291 -27 -134 -38 -407 -21
-471 17 -60 82 -124 144 -141 94 -27 195 13 243 96 26 43 28 55 35 227 9 216
33 325 108 482 62 130 115 208 210 307 229 241 521 367 852 367 192 0 355 -38
524 -123 113 -56 187 -109 283 -201 103 -99 168 -185 226 -296 97 -187 125
-298 135 -536 7 -172 9 -184 35 -227 31 -53 95 -96 156 -104 98 -13 203 55
230 151 18 66 7 337 -20 470 -129 645 -621 1137 -1265 1266 -98 20 -368 34
-460 24z"/>
</g>
</svg>
